<svg xmlns="http://www.w3.org/2000/svg" viewBox="0 0 16 16"><path fill="#4CAF50" d="M6 3L3 4.565V10h5.565L10 7H6z"/><path fill="#4CAF50" d="M3 0l3 3h4v4l3 3V0z"/><g fill="#455A64"><path d="M13.5 11h-2a.5.5 0 00-.5.5v4a.5.5 0 00.5.5h2c1.379 0 2.5-1.121 2.5-2.5S14.879 11 13.5 11zm0 4H12v-3h1.5c.827 0 1.5.673 1.5 1.5s-.673 1.5-1.5 1.5zM9.691 11.038a.502.502 0 00-.545.108L7.5 12.793l-1.646-1.646A.5.5 0 005 11.5v4a.5.5 0 001 0v-2.793l1.146 1.146a.5.5 0 00.707 0L9 12.707V15.5a.5.5 0 001 0v-4a.5.5 0 00-.309-.462zM2.468 11.324c-.146-.391-.79-.391-.937 0l-1.5 4a.5.5 0 00.936.352L1.222 15h1.557l.253.676a.5.5 0 00.936-.352l-1.5-4zM1.597 14L2 12.924 2.403 14h-.806z"/></g></svg>