<svg xmlns="http://www.w3.org/2000/svg" enable-background="new 0 0 24 24" viewBox="0 0 24 24"><path fill="#EA5821" d="M12.075,23.582l-0.038,0.063l-0.011,0.085l0.062,0.173l0.16,0.097l0.11-0.022l0.037-0.027c0.791-0.44,1.551-0.935,2.276-1.478c0.727-0.548,1.409-1.149,2.053-1.803c0.643-0.652,1.235-1.358,1.779-2.118c0.546-0.76,1.041-1.562,1.484-2.412c0.283-0.544,0.511-1.115,0.681-1.703c0.173-0.596,0.275-1.212,0.308-1.848c0.085-1.224-0.073-2.392-0.469-3.502c-0.397-1.11-0.973-2.099-1.731-2.963c-0.764-0.869-1.692-1.58-2.733-2.094c-1.076-0.535-2.25-0.848-3.451-0.919c-0.264-0.032-0.531-0.044-0.806-0.035c-0.271,0.008-0.538,0.028-0.803,0.062l-0.086-0.037l-0.036-0.086c0.066-0.473,0.187-0.925,0.369-1.358c0.184-0.436,0.418-0.851,0.694-1.238l0.036-0.061l0.012-0.084l-0.062-0.174L11.753,0l-0.11,0.025l-0.038,0.025c-0.791,0.439-1.548,0.932-2.276,1.478c-0.726,0.548-1.408,1.148-2.053,1.8C6.634,3.984,6.042,4.69,5.497,5.447C4.954,6.208,4.457,7.02,4.014,7.884c-0.281,0.526-0.509,1.082-0.682,1.68c-0.172,0.597-0.275,1.213-0.308,1.849c-0.088,1.187,0.071,2.379,0.47,3.502c0.383,1.088,0.97,2.093,1.731,2.963c0.764,0.869,1.69,1.58,2.732,2.096c1.075,0.532,2.251,0.846,3.451,0.918c0.267,0.034,0.535,0.046,0.804,0.037c0.27-0.01,0.536-0.03,0.803-0.062l0.086,0.038l0.039,0.085c-0.066,0.474-0.189,0.925-0.372,1.359C12.586,22.776,12.355,23.19,12.075,23.582L12.075,23.582z M11.78,15.478c-0.99-0.048-1.801-0.438-2.436-1.162C8.72,13.622,8.411,12.706,8.49,11.78c0.032-0.928,0.459-1.799,1.175-2.4c0.696-0.623,1.623-0.933,2.56-0.855c0.936,0.031,1.816,0.454,2.423,1.162c0.631,0.689,0.943,1.608,0.865,2.535c-0.068,0.962-0.461,1.761-1.188,2.4C13.635,15.246,12.71,15.556,11.78,15.478L11.78,15.478z"/><path fill="#DEDEDE" d="M11.94,8.513c-0.837,0-1.649,0.307-2.275,0.867c-0.716,0.602-1.142,1.473-1.175,2.4c-0.079,0.926,0.229,1.842,0.854,2.535c0.635,0.725,1.446,1.114,2.436,1.162c0.073,0.006,0.147,0.01,0.22,0.011V8.513C11.98,8.513,11.96,8.513,11.94,8.513L11.94,8.513z"/><path fill="#CC4D1D" d="M11.753,0l-0.11,0.025l-0.038,0.025c-0.791,0.439-1.548,0.932-2.276,1.478c-0.726,0.548-1.408,1.148-2.053,1.8C6.634,3.984,6.042,4.69,5.497,5.447C4.954,6.208,4.457,7.02,4.014,7.884c-0.281,0.526-0.509,1.082-0.682,1.68c-0.172,0.597-0.275,1.213-0.308,1.849c-0.088,1.187,0.071,2.379,0.47,3.502c0.383,1.088,0.97,2.093,1.731,2.963c0.764,0.869,1.69,1.58,2.732,2.096c1.075,0.532,2.251,0.846,3.451,0.918c0.196,0.025,0.394,0.038,0.592,0.04v-5.441c-0.073-0.001-0.147-0.005-0.22-0.011c-0.99-0.048-1.801-0.438-2.436-1.162C8.72,13.622,8.411,12.706,8.49,11.78c0.032-0.928,0.459-1.799,1.175-2.4c0.626-0.56,1.437-0.867,2.275-0.867c0.02,0,0.04,0,0.06,0.001V3.072c-0.012,0-0.025,0-0.037,0c-0.058,0-0.116,0.001-0.174,0.003c-0.271,0.008-0.538,0.028-0.803,0.062l-0.086-0.037l-0.036-0.086c0.066-0.473,0.187-0.925,0.369-1.358c0.184-0.436,0.418-0.851,0.694-1.238l0.036-0.061l0.012-0.084l-0.062-0.174L11.753,0L11.753,0z"/></svg>